<svg id="Layer_2" data-name="Layer 2" xmlns="http://www.w3.org/2000/svg" viewBox="0 0 380.4 728.91"><defs><style>.cls-1{fill:#7e8c8d;}.cls-2,.cls-9{fill:#f09c40;}.cls-3{fill:#f1c342;}.cls-4,.cls-8{fill:none;stroke:#e87c3e;stroke-miterlimit:10;}.cls-4{stroke-width:23px;}.cls-5{fill:#e87c3e;}.cls-6{fill:#bec3c7;}.cls-7{fill:#95a6a6;}.cls-8{stroke-width:20px;}.cls-9{font-size:150px;font-weight:700;}.cls-10,.cls-9{font-family:Helvetica Neue;}.cls-10{font-size:60px;fill:#333;}</style></defs><title>siam-knowledge-logo</title><ellipse class="cls-1" cx="187.06" cy="491.5" rx="36.08" ry="27.73"/><path class="cls-2" d="M327.46,424.32a833.8,833.8,0,0,0-58.35-87.83,191.74,191.74,0,0,1-30.55-58.08C222.8,229.24,217.34,150.08,306,85.77c0,0,42.92-28.05,95.81-28.05v366.6H327.46Z" transform="translate(-214.75 -57.72)"/><path class="cls-3" d="M476.54,424.32a833.83,833.83,0,0,1,58.32-87.8,192.44,192.44,0,0,0,31.27-60.33c15.2-49.3,19.21-127.07-68.14-190.41,0,0-42.92-28.05-95.81-28.05v366.6h74.35Z" transform="translate(-214.75 -57.72)"/><path class="cls-4" d="M316.34,210.71" transform="translate(-214.75 -57.72)"/><polygon class="cls-5" points="163.75 366.6 149.85 366.6 95.41 158.58 109.31 158.58 163.75 366.6"/><polygon class="cls-5" points="210.93 366.6 224.83 366.6 279.27 158.58 265.37 158.58 210.93 366.6"/><rect class="cls-6" x="113.1" y="370.02" width="147.92" height="25.09"/><rect class="cls-7" x="113.1" y="395.11" width="147.92" height="25.09"/><rect class="cls-6" x="113.1" y="420.2" width="147.92" height="25.09"/><rect class="cls-6" x="113.1" y="470.39" width="147.92" height="25.09"/><rect class="cls-7" x="113.1" y="445.3" width="147.92" height="25.09"/><polyline class="cls-8" points="273.49 167.63 251.89 133.63 230.28 167.63 208.68 133.63 187.07 167.63 165.46 133.63 143.85 167.63 122.25 133.63 100.63 167.63"/><text class="cls-9" transform="translate(0 652.44)">SIAM</text><text class="cls-10" transform="translate(2 710.61)">KNOWLEDGE</text></svg>