<svg id="Layer_2" data-name="Layer 2" xmlns="http://www.w3.org/2000/svg" viewBox="0 0 348.74 724.36"><defs><style>.cls-1{fill:#7e8c8d;}.cls-2,.cls-9{fill:#f09c40;}.cls-3{fill:#f1c342;}.cls-4,.cls-8{fill:none;stroke:#e87c3e;stroke-miterlimit:10;}.cls-4{stroke-width:23px;}.cls-5{fill:#e87c3e;}.cls-6{fill:#bec3c7;}.cls-10,.cls-7{fill:#95a6a6;}.cls-8{stroke-width:20px;}.cls-9{font-size:150px;font-weight:700;}.cls-10,.cls-9{font-family:HK Grotesk;}.cls-10{font-size:55px;}</style></defs><title>siam-knowledge-logo-text</title><ellipse class="cls-1" cx="174.64" cy="491.5" rx="36.08" ry="27.73"/><path class="cls-2" d="M325.46,424.32a833.8,833.8,0,0,0-58.35-87.83,191.74,191.74,0,0,1-30.55-58.08C220.8,229.24,215.34,150.08,304,85.77c0,0,42.92-28.05,95.81-28.05v366.6H325.46Z" transform="translate(-225.17 -57.72)"/><path class="cls-3" d="M474.54,424.32a833.83,833.83,0,0,1,58.32-87.8,192.44,192.44,0,0,0,31.27-60.33c15.2-49.3,19.21-127.07-68.14-190.41,0,0-42.92-28.05-95.81-28.05v366.6h74.35Z" transform="translate(-225.17 -57.72)"/><path class="cls-4" d="M314.34,210.71" transform="translate(-225.17 -57.72)"/><polygon class="cls-5" points="151.33 366.6 137.43 366.6 82.99 158.58 96.89 158.58 151.33 366.6"/><polygon class="cls-5" points="198.51 366.6 212.41 366.6 266.85 158.58 252.95 158.58 198.51 366.6"/><rect class="cls-6" x="100.68" y="370.02" width="147.92" height="25.09"/><rect class="cls-7" x="100.68" y="395.11" width="147.92" height="25.09"/><rect class="cls-6" x="100.68" y="420.2" width="147.92" height="25.09"/><rect class="cls-6" x="100.68" y="470.39" width="147.92" height="25.09"/><rect class="cls-7" x="100.68" y="445.3" width="147.92" height="25.09"/><polyline class="cls-8" points="261.07 167.63 239.47 133.63 217.86 167.63 196.26 133.63 174.65 167.63 153.04 133.63 131.44 167.63 109.83 133.63 88.22 167.63"/><text class="cls-9" transform="translate(0 652.44)">SIAM</text><text class="cls-10" transform="translate(4.34 710.61)">KNOWLEDGE</text></svg>